<?xml version="1.0" encoding="utf-8"?>
<!-- Generator: Adobe Illustrator 22.1.0, SVG Export Plug-In . SVG Version: 6.00 Build 0)  -->
<svg version="1.1" id="Layer_1" xmlns="http://www.w3.org/2000/svg" xmlns:xlink="http://www.w3.org/1999/xlink" x="0px" y="0px"
	 viewBox="0 0 412.997 257.074" enable-background="new 0 0 412.997 257.074" xml:space="preserve">
<path fill="none" d="M0,0h412.997v257.074H0V0z"/>
<path fill="#FF0062" d="M85.5,112.563c0,7.669-6.217,13.884-13.886,13.884s-13.884-6.215-13.884-13.884s6.215-13.886,13.884-13.886
	S85.5,104.895,85.5,112.563"/>
<path fill="#00C900" d="M282.606,81.447c0,18.769-15.213,33.983-33.985,33.983c-18.767,0-33.98-15.213-33.98-33.983
	s15.213-33.983,33.98-33.983C267.393,47.465,282.606,62.678,282.606,81.447"/>
<path fill="#0081FD" d="M363.111,92.595c0,11.278-9.142,20.419-20.417,20.419c-11.277,0-20.419-9.142-20.419-20.419
	s9.142-20.419,20.419-20.419C353.969,72.175,363.111,81.317,363.111,92.595"/>
<path fill="#9D47FF" d="M153.27,146.627c-13.619,0-24.658-11.039-24.658-24.653c0-13.619,11.039-24.655,24.658-24.655
	c13.616,0,24.653,11.037,24.653,24.655C177.924,135.588,166.887,146.627,153.27,146.627"/>
<path d="M129.027,199.548c-8.161,0-14.778-6.597-14.778-14.734c0-8.135,6.617-14.732,14.778-14.732s14.776,6.597,14.776,14.732
	C143.803,192.951,137.188,199.548,129.027,199.548 M129.027,160.152c-13.665,0-24.739,11.039-24.739,24.662
	s11.074,24.666,24.739,24.666s24.742-11.043,24.742-24.666S142.692,160.152,129.027,160.152"/>
<path d="M85.078,208.663v-31.138L71.616,197.9H71.34l-13.325-20.17v30.933H47.693v-47.694h11.344l12.579,20.169l12.574-20.169
	h11.346v47.694H85.078z"/>
<path d="M180.245,209.343c-7.242,0-14.555-2.518-20.298-7.631l6.22-7.426c4.307,3.543,8.815,5.789,14.283,5.789
	c4.307,0,6.902-1.701,6.902-4.495v-0.137c0-2.657-1.639-4.018-9.634-6.063c-9.639-2.454-15.856-5.111-15.856-14.579v-0.139
	c0-8.651,6.971-14.374,16.742-14.374c6.973,0,12.919,2.178,17.771,6.063l-5.466,7.903c-4.238-2.929-8.408-4.702-12.437-4.702
	c-4.033,0-6.151,1.84-6.151,4.157v0.139c0,3.132,2.047,4.155,10.317,6.266c9.705,2.522,15.174,5.997,15.174,14.31v0.135
	C197.81,204.032,190.566,209.343,180.245,209.343"/>
<path d="M237.08,208.663v-19.145h-19.41v19.145h-10.525v-47.694h10.525v18.873h19.41v-18.873h10.524v47.694H237.08z"/>
<path d="M279.943,170.644v38.018h-10.525v-38.018h-14.557v-9.676H294.5v9.676H279.943z"/>
<path d="M353.286,208.663l-10.73-16.353l-10.8,16.353h-11.96l16.678-24.256l-15.993-23.438h12.302l10.045,15.467l10.116-15.467
	h11.962l-15.993,23.301l16.675,24.393H353.286z"/>
<path d="M301.988,160.967h10.524v47.694h-10.524V160.967z"/>
</svg>
